<!DOCTYPE svg PUBLIC "-//W3C//DTD SVG 1.1//EN" "http://www.w3.org/Graphics/SVG/1.1/DTD/svg11.dtd">
<!-- Uploaded to: SVG Repo, www.svgrepo.com, Transformed by: SVG Repo Mixer Tools -->
<svg height="800px" width="800px" version="1.1" id="Layer_1" xmlns="http://www.w3.org/2000/svg" xmlns:xlink="http://www.w3.org/1999/xlink" viewBox="0 0 512 512" xml:space="preserve" fill="#000000">
<g id="SVGRepo_bgCarrier" stroke-width="0"/>
<g id="SVGRepo_tracerCarrier" stroke-linecap="round" stroke-linejoin="round"/>
<g id="SVGRepo_iconCarrier"> <circle style="fill:#FFC61B;" cx="256" cy="256" r="256"/> <path style="fill:#EAA22F;" d="M267.655,511.724C403.628,505.63,512,393.478,512,256c0-0.812-0.022-1.617-0.031-2.427 L376.592,118.196l-123.825,196.92l22.597,22.597L146.33,390.401L267.655,511.724z"/> <path style="fill:#FFFFFF;" d="M364.104,398.222H204.786c-10.988,0-19.897-8.907-19.897-19.897V133.673 c0-10.988,8.907-19.896,19.897-19.896h159.318c10.988,0,19.897,8.907,19.897,19.896v244.652 C384,389.315,375.093,398.222,364.104,398.222z"/> <path style="fill:#C92F00;" d="M321.438,398.222H162.12c-10.988,0-19.897-8.907-19.897-19.897V133.673 c0-10.988,8.909-19.896,19.897-19.896h159.318c10.988,0,19.896,8.907,19.896,19.896v244.652 C341.333,389.315,332.426,398.222,321.438,398.222z"/> <path style="fill:#930000;" d="M321.438,113.778h-79.803v284.444h79.803c10.988,0,19.897-8.907,19.897-19.897v-244.65 C341.333,122.685,332.426,113.778,321.438,113.778z"/> <polygon style="fill:#FFC61B;" points="283.153,193.077 256,193.077 256,162.478 227.556,162.478 227.556,193.077 200.406,193.077 200.406,221.522 227.556,221.522 227.556,304.7 256,304.7 256,221.522 283.153,221.522 "/> <polygon style="fill:#EAA22F;" points="256,193.077 256,162.478 241.635,162.478 241.635,304.7 256,304.7 256,221.522 283.153,221.522 283.153,193.077 "/> </g>
</svg>